<?xml version="1.0" encoding="UTF-8" standalone="no"?>
<!-- Created with Inkscape (http://www.inkscape.org/) -->

<svg
   width="224.89583mm"
   height="224.89583mm"
   viewBox="0 0 224.89583 224.89583"
   version="1.1"
   id="svg1"
   xml:space="preserve"
   xmlns="http://www.w3.org/2000/svg"
   xmlns:svg="http://www.w3.org/2000/svg"><defs
     id="defs1" /><g
     id="layer1"
     transform="translate(17.301043,-56.575882)"><path
       style="fill:#000000;stroke-width:0.264583"
       d="M 6.2378783,247.24736 39.965318,273.8867 c 0,0 21.238285,-26.32919 31.040975,-40.10001 9.352584,-13.1385 16.430891,-27.87502 26.454692,-40.50888 2.840855,-3.58057 5.163315,-9.89077 9.475195,-9.91157 2.38777,-0.0115 5.44519,4.47098 6.76449,7.59358 6.34271,15.01242 -4.33137,33.23137 3.50646,48.76608 1.78074,3.52945 8.75803,7.99681 8.75803,7.99681 L 182.53583,62.386728 C 126.92128,94.838513 74.248222,130.14959 17.958633,161.41052 c 0,0 9.864046,3.3244 14.983712,3.37838 13.153385,0.13869 26.111253,-7.00829 38.670433,-7.86604 6.117464,-0.41781 10.515894,3.8418 13.259745,7.71697 1.975476,2.78999 -78.6346447,82.60753 -78.6346447,82.60753 z"
       id="path1" /></g></svg>
